<svg aria-hidden="true" style="position: absolute; width: 0; height: 0; overflow: hidden;" version="1.1" xmlns="http://www.w3.org/2000/svg" xmlns:xlink="http://www.w3.org/1999/xlink">
<defs>
<symbol id="icon-check-solid-full" viewBox="0 0 32 32">
<path d="M26.54 6.705c0.715 0.52 0.875 1.52 0.355 2.235l-12.8 17.6c-0.275 0.38-0.7 0.615-1.17 0.655s-0.925-0.135-1.255-0.465l-6.4-6.4c-0.625-0.625-0.625-1.64 0-2.265s1.64-0.625 2.265 0l5.075 5.075 11.7-16.085c0.52-0.715 1.52-0.875 2.235-0.355z"></path>
</symbol>
<symbol id="icon-file-pdf-regular-full" viewBox="0 0 32 32">
<path d="M12 5.6h-5.6c-0.44 0-0.8 0.36-0.8 0.8v19.2c0 0.44 0.36 0.8 0.8 0.8h4v2.4h-4c-1.765 0-3.2-1.435-3.2-3.2v-19.2c0-1.765 1.435-3.2 3.2-3.2h6.675c0.85 0 1.665 0.335 2.265 0.935l6.125 6.13c0.6 0.6 0.935 1.415 0.935 2.265v7.475h-2.4v-6.4h-4.4c-1.99 0-3.6-1.61-3.6-3.6v-4.4zM19.005 11.2l-4.605-4.605v3.405c0 0.665 0.535 1.2 1.2 1.2h3.405zM13.6 22.2h1.6c1.655 0 3 1.345 3 3s-1.345 3-3 3h-0.6v1.4c0 0.55-0.45 1-1 1s-1-0.45-1-1v-6.4c0-0.55 0.45-1 1-1zM15.2 26.2c0.55 0 1-0.45 1-1s-0.45-1-1-1h-0.6v2h0.6zM20 22.2h1.6c1.435 0 2.6 1.165 2.6 2.6v3.2c0 1.435-1.165 2.6-2.6 2.6h-1.6c-0.55 0-1-0.45-1-1v-6.4c0-0.55 0.45-1 1-1zM21.6 28.6c0.33 0 0.6-0.27 0.6-0.6v-3.2c0-0.33-0.27-0.6-0.6-0.6h-0.6v4.4h0.6zM25.4 23.2c0-0.55 0.45-1 1-1h2.4c0.55 0 1 0.45 1 1s-0.45 1-1 1h-1.4v1.2h1.4c0.55 0 1 0.45 1 1s-0.45 1-1 1h-1.4v2.2c0 0.55-0.45 1-1 1s-1-0.45-1-1v-6.4z"></path>
</symbol>
<symbol id="icon-handcuffs-solid-full" viewBox="0 0 32 32">
<path d="M17.6 1.6c0-0.885-0.715-1.6-1.6-1.6s-1.6 0.715-1.6 1.6c0 0.885 0.715 1.6 1.6 1.6s1.6-0.715 1.6-1.6zM11.2 6.4c0.885 0 1.6-0.715 1.6-1.6s-0.715-1.6-1.6-1.6c-0.885 0-1.6 0.715-1.6 1.6s0.715 1.6 1.6 1.6zM9.2 8c-0.665 0-1.2 0.535-1.2 1.2v0.8c0 0.050 0.005 0.095 0.010 0.145-3.735 1.315-6.41 4.875-6.41 9.055 0 5.3 4.3 9.6 9.6 9.6s9.6-4.3 9.6-9.6c0-4.185-2.675-7.74-6.41-9.055 0.005-0.045 0.010-0.095 0.010-0.145v-0.8c0-0.665-0.535-1.2-1.2-1.2h-4zM4.8 19.2c0-3.535 2.865-6.4 6.4-6.4s6.4 2.865 6.4 6.4c0 3.535-2.865 6.4-6.4 6.4s-6.4-2.865-6.4-6.4zM27.2 19.2c0 3.345-2.565 6.090-5.83 6.375-0.715 1.14-1.62 2.155-2.67 2.995 0.675 0.15 1.38 0.23 2.1 0.23 5.3 0 9.6-4.3 9.6-9.6 0-4.185-2.675-7.74-6.41-9.055 0.005-0.045 0.010-0.095 0.010-0.145v-0.8c0-0.665-0.535-1.2-1.2-1.2h-4c-0.615 0-1.12 0.46-1.19 1.055 1.515 0.96 2.805 2.25 3.76 3.77 3.27 0.29 5.83 3.030 5.83 6.375zM20.8 6.4c0.885 0 1.6-0.715 1.6-1.6s-0.715-1.6-1.6-1.6c-0.885 0-1.6 0.715-1.6 1.6s0.715 1.6 1.6 1.6z"></path>
</symbol>
<symbol id="icon-money-bill-1-wave-solid-full" viewBox="0 0 32 32">
<path d="M3.2 8.675v15.505c0 0.97 0.59 1.865 1.515 2.165 4.7 1.5 7.94 0.42 11.165-0.655 3.12-1.040 6.22-2.075 10.605-0.765 1.11 0.33 2.31-0.44 2.31-1.6v-15.505c0-0.97-0.59-1.865-1.515-2.165-4.7-1.5-7.94-0.42-11.165 0.655-3.12 1.040-6.22 2.075-10.605 0.765-1.11-0.33-2.315 0.44-2.315 1.6zM16 21.6c-2.65 0-4.8-2.505-4.8-5.6s2.15-5.6 4.8-5.6c2.65 0 4.8 2.505 4.8 5.6s-2.15 5.6-4.8 5.6zM9.555 23.475c0.035 0.22-0.14 0.405-0.36 0.405-0.785 0-1.605-0.090-2.5-0.305-0.175-0.040-0.3-0.2-0.3-0.385l0.005-1.99c0-0.22 0.18-0.405 0.4-0.375 1.405 0.175 2.53 1.26 2.76 2.65zM25.6 20.93c0 0.25-0.23 0.44-0.475 0.4-0.77-0.125-1.51-0.195-2.22-0.215-0.245-0.005-0.435-0.225-0.36-0.46 0.365-1.185 1.4-2.070 2.66-2.23 0.22-0.025 0.4 0.155 0.4 0.375v2.13zM25.2 11.175c-1.405-0.175-2.53-1.26-2.76-2.65-0.035-0.22 0.14-0.405 0.36-0.405 0.785 0 1.605 0.090 2.5 0.305 0.175 0.040 0.3 0.2 0.3 0.385v1.995c0 0.22-0.18 0.405-0.4 0.375zM9.095 10.885c0.245 0.005 0.435 0.225 0.36 0.46-0.365 1.185-1.4 2.070-2.66 2.23-0.22 0.025-0.4-0.155-0.4-0.375v-2.13c0-0.25 0.23-0.44 0.475-0.4 0.77 0.125 1.51 0.195 2.22 0.215zM15.2 12.6c-0.55 0-1 0.45-1 1 0 0.485 0.345 0.885 0.8 0.98v2.42h-0.2c-0.55 0-1 0.45-1 1s0.45 1 1 1h2.4c0.55 0 1-0.45 1-1s-0.45-1-1-1h-0.2v-3.4c0-0.55-0.45-1-1-1h-0.8z"></path>
</symbol>
<symbol id="icon-paper-plane-solid-full" viewBox="0 0 32 32">
<path d="M28.42 1.885c0.49-0.175 1.030-0.050 1.4 0.315s0.49 0.91 0.315 1.4l-8.9 24.845c-0.25 0.695-0.905 1.155-1.64 1.155-0.71 0-1.35-0.43-1.615-1.085l-3.21-7.9c-0.225-0.55-0.125-1.18 0.26-1.63l4.725-5.62c0.255-0.305 0.235-0.75-0.045-1.030s-0.73-0.3-1.030-0.045l-5.62 4.715c-0.455 0.38-1.080 0.48-1.63 0.26l-7.925-3.225c-0.655-0.265-1.085-0.905-1.085-1.615 0-0.735 0.46-1.39 1.155-1.64l24.845-8.9z"></path>
</symbol>
<symbol id="icon-pencil-solid-full" viewBox="0 0 32 32">
<path d="M5.020 20.86c0.205-0.73 0.59-1.395 1.13-1.935l10.755-10.755c0.83 0.83 2.565 2.565 5.2 5.2l1.695 1.695-10.755 10.755c-0.535 0.535-1.205 0.925-1.935 1.13l-6.39 1.78c-0.415 0.115-0.865 0-1.17-0.31s-0.42-0.755-0.305-1.17l1.775-6.39zM7.8 20.675c-0.22 0.235-0.38 0.52-0.465 0.83l-1.205 4.345 4.345-1.205c0.32-0.090 0.61-0.255 0.85-0.485l-3.53-3.485zM25.5 13.37c-0.83-0.83-2.565-2.565-5.2-5.2l-1.7-1.695c1.325-1.325 2.070-2.070 2.245-2.245 0.675-0.68 1.595-1.060 2.555-1.060s1.88 0.38 2.555 1.060l1.785 1.785c0.68 0.68 1.060 1.6 1.060 2.555s-0.38 1.88-1.060 2.555c-0.175 0.175-0.92 0.92-2.245 2.245z"></path>
</symbol>
<symbol id="icon-share-nodes-solid-full" viewBox="0 0 32 32">
<path d="M22.4 12.8c2.65 0 4.8-2.15 4.8-4.8s-2.15-4.8-4.8-4.8c-2.65 0-4.8 2.15-4.8 4.8 0 0.27 0.025 0.54 0.065 0.8l-6.485 3.605c-0.845-0.75-1.96-1.205-3.18-1.205-2.65 0-4.8 2.15-4.8 4.8s2.15 4.8 4.8 4.8c1.22 0 2.33-0.455 3.18-1.205l6.485 3.605c-0.045 0.26-0.065 0.525-0.065 0.8 0 2.65 2.15 4.8 4.8 4.8s4.8-2.15 4.8-4.8c0-2.65-2.15-4.8-4.8-4.8-1.22 0-2.33 0.455-3.18 1.205l-6.485-3.605c0.045-0.26 0.065-0.525 0.065-0.8s-0.025-0.54-0.065-0.8l6.485-3.605c0.845 0.75 1.96 1.205 3.18 1.205z"></path>
</symbol>
<symbol id="icon-shield-halved-solid-full" viewBox="0 0 32 32">
<path d="M16 3.2c0.23 0 0.46 0.050 0.67 0.145l9.42 3.995c1.1 0.465 1.92 1.55 1.915 2.86-0.025 4.96-2.065 14.035-10.68 18.16-0.835 0.4-1.805 0.4-2.64 0-8.62-4.125-10.655-13.2-10.68-18.16-0.005-1.31 0.815-2.395 1.915-2.86l9.415-3.995c0.21-0.095 0.435-0.145 0.665-0.145zM16 6.54v18.905c6.9-3.34 8.755-10.74 8.8-15.17l-8.8-3.73z"></path>
</symbol>
<symbol id="icon-shield-heart-solid-full" viewBox="0 0 32 32">
<path d="M16.67 3.345c-0.21-0.095-0.435-0.145-0.67-0.145s-0.46 0.050-0.67 0.145l-9.415 3.995c-1.1 0.465-1.92 1.55-1.915 2.86 0.025 4.96 2.065 14.035 10.68 18.16 0.835 0.4 1.805 0.4 2.64 0 8.62-4.125 10.66-13.2 10.68-18.16 0.005-1.31-0.815-2.395-1.915-2.86l-9.415-3.995zM15.68 12.375l0.32 0.425 0.32-0.425c0.555-0.74 1.425-1.175 2.345-1.175 1.62 0 2.935 1.315 2.935 2.935v0.265c0 2.455-3.29 4.905-4.825 5.915-0.475 0.31-1.075 0.31-1.545 0-1.535-1.010-4.825-3.465-4.825-5.915v-0.265c0-1.62 1.315-2.935 2.935-2.935 0.925 0 1.795 0.435 2.345 1.175z"></path>
</symbol>
<symbol id="icon-user-solid-full" viewBox="0 0 32 32">
<path d="M16 15.6c3.315 0 6-2.685 6-6s-2.685-6-6-6c-3.315 0-6 2.685-6 6s2.685 6 6 6zM14.515 18.4c-4.925 0-8.915 3.99-8.915 8.915 0 0.82 0.665 1.485 1.485 1.485h17.83c0.82 0 1.485-0.665 1.485-1.485 0-4.925-3.99-8.915-8.915-8.915h-2.97z"></path>
</symbol>
</defs>
</svg>
